# xmcd
#
# Track frame offsets: 
#        150
#        11521
#        22339
#        34740
#        45065
#        55576
#        67693
#        80115
#        90234
#        101042
#        111626
#        123859
#        135531
#        146710
#        155687
#        165836
#        174881
#        187380
#        197970
#        208221
#        219917
#        228807
#        239792
#        249340
#        261528
#
# Disc length: 3633 seconds
#
# Revision: 1
# Processed by: cddbd v1.5.2PL0 Copyright (c) Steve Scherf et al.
# Submitted via: ExactAudioCopyFreeDBPlugin 1.0
#
DISCID=5f0e2f19
DTITLE=Various Artist - Soul Sixties [Real Gone Music]
DYEAR=2015
DGENRE=Soul
TTITLE0=Eddie Holland - If It's Love (It's All Right)
TTITLE1=Tommy Hunt - Didn't I Tell You
TTITLE2=King Coleman - Crazy Feelin'
TTITLE3=The Bobbettes - Over There
TTITLE4=Pat Hunt - You Are My First Love
TTITLE5=The Impressions - Listen
TTITLE6=Damita Jo - I'll Be There
TTITLE7=Lou Johnson - If I Never Get to Love You
TTITLE8=The Blue Belles - I Sold My Heart to the Junkman
TTITLE9=Major Lance - Delilah
TTITLE10=Bob and Earl - Don't Ever Leave Me
TTITLE11=Syl Johnson - I Resign from Your Love
TTITLE12=Ernie K-Doe - Beating Like a Tom Tom
TTITLE13=Calvin and Clarence - I Don't Know (Schoolgirl)
TTITLE14=The Del-Rios - There's a Love
TTITLE15=Willie Harper - Power of Love
TTITLE16=Etta James - Something's Got a Hold on Me
TTITLE17=Marv Johnson - Magic Mirror
TTITLE18=The Orlons - Don't Hang Up
TTITLE19=Barbara Lynn - You're Gonna Need Me
TTITLE20=Nathaniel Mayer - Village of Love
TTITLE21=Brenda Holloway - I'll Give My Life
TTITLE22=Geraldine Hunt - I Let Myself Go
TTITLE23=Chuck Jackson - I Keep Forgettin'
TTITLE24=Dean Barlow - Third Window from the Right
EXTD=
EXTT0=
EXTT1=
EXTT2=
EXTT3=
EXTT4=
EXTT5=
EXTT6=
EXTT7=
EXTT8=
EXTT9=
EXTT10=
EXTT11=
EXTT12=
EXTT13=
EXTT14=
EXTT15=
EXTT16=
EXTT17=
EXTT18=
EXTT19=
EXTT20=
EXTT21=
EXTT22=
EXTT23=
EXTT24=
PLAYORDER=
